<?xml version="1.0" encoding="UTF-8"?>
<svg width="512" height="512" viewBox="0 0 128 128" xmlns="http://www.w3.org/2000/svg" role="img" aria-label="Photos4RealEstate logo">
  <!-- Pin shape -->
  <path fill="#ca4153" d="M64 2C36 2 14 24 14 52c0 30 35.1 68.9 47.3 83.2a4.5 4.5 0 0 0 5.5 1C79 121 114 82 114 52 114 24 92 2 64 2z"/>
  <!-- Inner circle -->
  <circle cx="64" cy="52" r="36" fill="#fff"/>
  <!-- Camera icon -->
  <path fill="#ca4153" d="M78 38h-5.2l-2.8-4.4A7 7 0 0 0 64 31h-8a7 7 0 0 0-6 3.4L47.2 38H50c4.4 0 8 3.6 8 8v0h22c3.3 0 6 2.7 6 6v22c0 3.3-2.7 6-6 6H40c-3.3 0-6-2.7-6-6V52c0-3.3 2.7-6 6-6h6v-0.1c0-2.2 1.8-3.9 4-3.9h24z"/>
  <circle cx="64" cy="63" r="14" fill="#fff"/>
  <circle cx="64" cy="63" r="9" fill="#ca4153"/>
  <circle cx="83" cy="47" r="3.5" fill="#ca4153"/>
</svg>

